<svg xmlns="http://www.w3.org/2000/svg" width="12.268" height="12.268" viewBox="0 0 12.268 12.268"><g transform="translate(0 2.191)"><path d="M8.763,85.333H1.314A1.314,1.314,0,0,0,0,86.647V94.1a1.314,1.314,0,0,0,1.314,1.314H8.763A1.314,1.314,0,0,0,10.078,94.1V86.647A1.314,1.314,0,0,0,8.763,85.333ZM9.2,94.1a.438.438,0,0,1-.438.438H1.314A.438.438,0,0,1,.876,94.1V86.647a.438.438,0,0,1,.438-.438H8.763a.438.438,0,0,1,.438.438Z" transform="translate(0 -85.333)"/></g><g transform="translate(1.753)"><path d="M77.468,0H69.581a1.314,1.314,0,0,0-1.314,1.314.438.438,0,1,0,.876,0,.438.438,0,0,1,.438-.438h7.887a.438.438,0,0,1,.438.438V9.2a.438.438,0,0,1-.438.438.438.438,0,0,0,0,.876A1.314,1.314,0,0,0,78.783,9.2V1.314A1.314,1.314,0,0,0,77.468,0Z" transform="translate(-68.267)"/></g></svg>