<svg xmlns="http://www.w3.org/2000/svg" width="39.805" height="39.863" viewBox="0 0 39.805 39.863"><defs><style>.a{fill:none;}.b{fill:#f7a501;stroke:#fff;stroke-width:0.5px;}</style></defs><g transform="translate(0.194 0.103)"><rect class="a" width="39.805" height="39.831" transform="translate(-0.194 -0.071)"/><g transform="translate(0.154 0.364)"><g transform="translate(18.347 31.286)"><path class="b" d="M242.539,406.5h-3.148a1.085,1.085,0,1,0,0,2.17h3.148a1.085,1.085,0,1,0,0-2.17Z" transform="translate(-238.306 -406.5)"/></g><g transform="translate(0.006 0)"><g transform="translate(0 0)"><path class="b" d="M38.134,11.206,27.9.97a3.317,3.317,0,0,0-4.687,0L6.186,18.01H3.315A3.314,3.314,0,0,0,.006,21.319V35.788A3.314,3.314,0,0,0,3.315,39.1H26.743a3.314,3.314,0,0,0,3.309-3.309V23.967l8.074-8.074A3.31,3.31,0,0,0,38.134,11.206ZM24.75,2.509a1.143,1.143,0,0,1,1.616,0l1.77,1.77L14.414,18.01H9.249ZM2.176,21.319A1.136,1.136,0,0,1,3.315,20.18H26.743a1.136,1.136,0,0,1,1.139,1.139v2.509H2.176V21.319ZM27.89,35.8h0a1.136,1.136,0,0,1-1.139,1.139H3.315A1.136,1.136,0,0,1,2.176,35.8V26H27.89v9.8ZM36.6,14.361l-6.565,6.565a3.319,3.319,0,0,0-3.286-2.917H17.492L29.676,5.818,36.6,12.745A1.157,1.157,0,0,1,36.6,14.361Z" transform="translate(-0.006 0)"/></g></g></g></g></svg>