<svg xmlns="http://www.w3.org/2000/svg" width="40" height="40" viewBox="0 0 40 40"><defs><style>.a{fill:none;}.b{fill:#f7a501;stroke:#f7a501;stroke-width:0.3px;}</style></defs><g transform="translate(0 8)"><rect class="a" width="40" height="40" transform="translate(0 -8)"/><g transform="translate(-5.702 -9.788)"><path class="b" d="M39.837,41.576H11.565A.565.565,0,0,1,11,41.011V2.565A.565.565,0,0,1,11.565,2H30.794a.565.565,0,0,1,.4.165l9.046,9.041a.565.565,0,0,1,.166.4V41.011a.565.565,0,0,1-.568.565ZM12.131,40.445H39.274V11.84l-8.718-8.71H12.131Z"/><path class="b" d="M54.616,12.182H45.57a.565.565,0,0,1-.565-.565V2.565a.565.565,0,0,1,1.131,0v8.486h8.481a.565.565,0,1,1,0,1.131Z" transform="translate(-14.779 0)"/><path class="b" d="M38.921,36.881H18.57a.565.565,0,1,1,0-1.131H38.921a.565.565,0,0,1,0,1.131Z" transform="translate(-3.045 -14.669)"/><path class="b" d="M38.921,28.965H18.57a.565.565,0,1,1,0-1.131H38.921a.565.565,0,0,1,0,1.131Z" transform="translate(-3.045 -11.228)"/><path class="b" d="M30.44,21.05H18.57a.565.565,0,1,1,0-1.131H30.44a.565.565,0,1,1,0,1.131Z" transform="translate(-3.045 -7.788)"/><path class="b" d="M30.44,13.131H18.57a.565.565,0,1,1,0-1.131H30.44a.565.565,0,1,1,0,1.131Z" transform="translate(-3.045 -4.346)"/><path class="b" d="M33.023,54.469a.565.565,0,0,1-.4-.966l4.005-4a.565.565,0,0,1,.8.8l-4.005,4A.565.565,0,0,1,33.023,54.469Z" transform="translate(-9.326 -20.572)"/><path class="b" d="M37.028,54.469a.565.565,0,0,1-.4-.166l-4.005-4a.565.565,0,0,1,.8-.8l4.005,4a.565.565,0,0,1-.4.966Z" transform="translate(-9.326 -20.572)"/><path class="b" d="M32.4,55.259a5.983,5.983,0,1,1,5.983-5.983A5.983,5.983,0,0,1,32.4,55.259Zm0-10.836a4.853,4.853,0,1,0,4.853,4.853A4.853,4.853,0,0,0,32.4,44.423Z" transform="translate(-6.701 -17.947)"/></g></g></svg>