<svg xmlns="http://www.w3.org/2000/svg" width="39" height="39" viewBox="0 0 39 39"><defs><style>.a{fill:#cdcece;}.b{fill:#fff;}</style></defs><g transform="translate(-536 -403)"><circle class="a" cx="19.5" cy="19.5" r="19.5" transform="translate(536 403)"/><path class="b" d="M19.768,6.808a5.65,5.65,0,1,1-5.65,5.65A5.651,5.651,0,0,1,19.768,6.808Zm0,24.59a12.537,12.537,0,0,1-8.164-3.01,2.408,2.408,0,0,1-.845-1.83,5.7,5.7,0,0,1,5.726-5.7h6.575a5.69,5.69,0,0,1,5.717,5.7,2.4,2.4,0,0,1-.844,1.829A12.533,12.533,0,0,1,19.764,31.4Z" transform="translate(535.365 404.666)"/></g></svg>