<svg xmlns="http://www.w3.org/2000/svg" width="40" height="40" viewBox="0 0 40 40"><defs><style>.a{fill:none;}.b{fill:#f7a501;stroke:#fff;stroke-width:0.7px;}</style></defs><g transform="translate(0 8)"><rect class="a" width="40" height="40" transform="translate(0 -8)"/><g transform="translate(1.855 -6.145)"><path class="b" d="M33.1,8.505H28.773A5.313,5.313,0,0,0,24.523,0a4.771,4.771,0,0,0-4.1,1.991,20.641,20.641,0,0,0-2.282,4.727,20.639,20.639,0,0,0-2.282-4.727A4.771,4.771,0,0,0,11.766,0a5.313,5.313,0,0,0-4.25,8.505H3.189A3.193,3.193,0,0,0,0,11.695v2.126a3.194,3.194,0,0,0,2.126,3.007V33.1a3.193,3.193,0,0,0,3.189,3.189H30.973A3.193,3.193,0,0,0,34.163,33.1V16.828a3.194,3.194,0,0,0,2.126-3.007V11.695A3.193,3.193,0,0,0,33.1,8.505Zm-13-.94c1.629-4.132,2.248-5.439,4.427-5.439a3.189,3.189,0,1,1,0,6.379h-4.8C19.854,8.178,19.979,7.863,20.1,7.565Zm-8.33-5.439c2.18,0,2.8,1.307,4.427,5.439.117.3.242.613.372.94h-4.8a3.189,3.189,0,0,1,0-6.379Zm2.126,32.036H5.316A1.064,1.064,0,0,1,4.253,33.1V17.01h9.639Zm0-19.279H3.189a1.064,1.064,0,0,1-1.063-1.063V11.695a1.064,1.064,0,0,1,1.063-1.063h10.7Zm6.379,19.279H16.018V10.632h4.253ZM32.036,33.1a1.064,1.064,0,0,1-1.063,1.063H22.4V17.01h9.639Zm2.126-19.279A1.064,1.064,0,0,1,33.1,14.884H22.4V10.632H33.1a1.064,1.064,0,0,1,1.063,1.063Z" transform="translate(0 0)"/></g></g></svg>