<svg xmlns="http://www.w3.org/2000/svg" width="12.852" height="17.16" viewBox="0 0 12.852 17.16">
  <g id="invoice" transform="translate(-64.27 0)">
    <g id="Group_17" data-name="Group 17" transform="translate(68.754 2.692)">
      <g id="Group_16" data-name="Group 16">
        <path id="Path_64" data-name="Path 64" d="M200.453,83.565h-.718a.574.574,0,1,1,0-1.148h1.436a.5.5,0,1,0,0-1H200.6v-.574a.5.5,0,0,0-1.005,0v.581a1.579,1.579,0,0,0,.144,3.152h.718a.574.574,0,1,1,0,1.148h-1.436a.5.5,0,1,0,0,1h.574V87.3a.5.5,0,0,0,1.005,0v-.581a1.579,1.579,0,0,0-.144-3.152Z" transform="translate(-198.155 -80.334)" fill="#000"/>
      </g>
    </g>
    <g id="Group_19" data-name="Group 19" transform="translate(67.498 11.846)">
      <g id="Group_18" data-name="Group 18">
        <path id="Path_65" data-name="Path 65" d="M166.554,353.467H161.17a.5.5,0,1,0,0,1.005h5.385a.5.5,0,0,0,0-1.005Z" transform="translate(-160.667 -353.467)" fill="#000"/>
      </g>
    </g>
    <g id="Group_21" data-name="Group 21" transform="translate(64.267)">
      <g id="Group_20" data-name="Group 20">
        <path id="Path_66" data-name="Path 66" d="M76.616,0H64.77a.5.5,0,0,0-.5.5V15.176a.5.5,0,0,0,.147.355L65.9,17.012a.5.5,0,0,0,.711,0l1.125-1.125,1.125,1.125a.5.5,0,0,0,.711,0L70.7,15.887l1.125,1.125a.5.5,0,0,0,.711,0l1.125-1.125,1.125,1.125a.5.5,0,0,0,.711,0l1.481-1.481a.5.5,0,0,0,.147-.355V.5a.5.5,0,0,0-.506-.5ZM75.135,15.945,74.01,14.82a.5.5,0,0,0-.711,0l-1.125,1.125L71.048,14.82a.5.5,0,0,0-.711,0l-1.125,1.125L68.087,14.82a.5.5,0,0,0-.711,0L66.25,15.945l-.978-.978V1H76.113V14.967h0Z" transform="translate(-64.267)" fill="#000"/>
      </g>
    </g>
  </g>
</svg>
