<svg xmlns="http://www.w3.org/2000/svg" width="40" height="40" viewBox="0 0 40 40"><defs><style>.a{fill:none;}.b{fill:#f7a501;}</style></defs><g transform="translate(0 8)"><rect class="a" width="40" height="40" transform="translate(0 -8)"/><g transform="translate(-34.749 -11.961)"><path class="b" d="M161.213,383.213h-5.942a.818.818,0,0,0,0,1.636h5.942A.818.818,0,0,0,161.213,383.213Z" transform="translate(-107.789 -348.951)"/><path class="b" d="M68.773,22.3a9.381,9.381,0,0,0-8.592-9.336V1.74a.777.777,0,0,0-.447-.7L57.679.073a.777.777,0,0,0-.66,0L53.99,1.493,50.961.073a.777.777,0,0,0-.66,0l-3.029,1.42L44.245.073a.777.777,0,0,0-.66,0l-3.029,1.42L37.527.073a.777.777,0,0,0-.66,0l-2.1.986a.777.777,0,0,0-.447.7V38.047a.777.777,0,0,0,.447.7l2.055.963a.777.777,0,0,0,.66,0l3.029-1.42,3.029,1.42a.777.777,0,0,0,.66,0l3.029-1.42,3.028,1.42a.777.777,0,0,0,.66,0l3.029-1.42,3.029,1.42a.777.777,0,0,0,.66,0l2.1-.986a.777.777,0,0,0,.447-.7V31.633A9.381,9.381,0,0,0,68.773,22.3ZM57.3,38.152l-3.029-1.42a.777.777,0,0,0-.66,0l-3.029,1.42-3.028-1.42a.777.777,0,0,0-.66,0l-3.029,1.42-3.029-1.42a.777.777,0,0,0-.66,0l-3.029,1.42-1.278-.6V2.256L37.2,1.635l3.029,1.42a.777.777,0,0,0,.66,0l3.029-1.42,3.028,1.42a.777.777,0,0,0,.66,0l3.029-1.42,3.029,1.42a.777.777,0,0,0,.66,0l3.029-1.42,1.278.6V12.961a9.385,9.385,0,0,0-8.589,9.563H40.4a.777.777,0,0,0,0,1.554h9.808a9.291,9.291,0,0,0,.66,2.074H40.4a.777.777,0,0,0,0,1.554h11.36a9.371,9.371,0,0,0,6.868,3.927v5.9Zm2.1-8.041A7.823,7.823,0,0,1,51.589,22.3c.429-10.367,15.2-10.364,15.629,0A7.823,7.823,0,0,1,59.4,30.112Z" transform="translate(3.43 3.961)"/><path class="b" d="M331.471,225.11a.818.818,0,0,0-1.071.438l-3.415,8.139a.818.818,0,0,0,1.509.633l3.415-8.139A.818.818,0,0,0,331.471,225.11Z" transform="translate(-266.143 -203.723)"/><path class="b" d="M305.281,222.986a2.462,2.462,0,0,0-2.327-2.572c-3.087.14-3.086,5,0,5.144A2.462,2.462,0,0,0,305.281,222.986Zm-3.018,0c0-.507.316-.936.691-.936s.691.428.691.936-.316.936-.691.936S302.262,223.493,302.262,222.986Z" transform="translate(-242.011 -199.471)"/><path class="b" d="M359.193,288.429A2.462,2.462,0,0,0,356.866,291c.129,3.412,4.526,3.411,4.654,0A2.462,2.462,0,0,0,359.193,288.429Zm0,3.508c-.375,0-.691-.428-.691-.936s.316-.936.691-.936.691.428.691.936S359.568,291.937,359.193,291.937Z" transform="translate(-293.639 -261.921)"/><path class="b" d="M174.358,143.452h-1.267a2.97,2.97,0,0,0-.7-1.471h1.957a.64.64,0,1,0,.006-1.279h-6.474a.64.64,0,1,0,0,1.279h1.855a2.162,2.162,0,0,1,2.041,1.471h-3.9a.64.64,0,1,0,0,1.279h3.9a2.217,2.217,0,0,1-.531.889,2.132,2.132,0,0,1-1.51.646h-1.855a.62.62,0,0,0-.441,1.075l4.631,4.375a.632.632,0,0,0,.9-.032.616.616,0,0,0-.013-.87c-.006-.006-.013-.006-.013-.013l-3.461-3.256h.243a3.436,3.436,0,0,0,2.418-1.017,3.3,3.3,0,0,0,.94-1.8h1.267a.64.64,0,1,0,0-1.279Z" transform="translate(-120.668 -130.947)"/></g></g></svg>