<svg xmlns="http://www.w3.org/2000/svg" width="40" height="40" viewBox="0 0 40 40"><defs><style>.a{fill:none;}.b{fill:#f7a501;}</style></defs><g transform="translate(-0.355 -2.851)"><rect class="a" width="40" height="40" transform="translate(0.355 2.851)"/><g transform="translate(0.355 7.136)"><path class="b" d="M42.571,10H5.429A1.433,1.433,0,0,0,4,11.429V32.857a1.433,1.433,0,0,0,1.429,1.429h20a7.143,7.143,0,0,0,14.286,0h2.857A1.433,1.433,0,0,0,44,32.857V11.429A1.433,1.433,0,0,0,42.571,10ZM37.357,29a7.122,7.122,0,0,0-10.5,1H11.071a3.5,3.5,0,0,0-2.786-2.786V17.071a3.5,3.5,0,0,0,2.786-2.786H36.929a3.5,3.5,0,0,0,2.786,2.786V27.214A3.509,3.509,0,0,0,37.357,29ZM32.571,40a5.714,5.714,0,1,1,5.714-5.714A5.731,5.731,0,0,1,32.571,40Zm10-7.143h-3a7.2,7.2,0,0,0-1.214-2.714,2.143,2.143,0,0,1,2.071-1.571.675.675,0,0,0,.714-.714V16.429a.675.675,0,0,0-.714-.714,2.1,2.1,0,0,1-2.143-2.143.675.675,0,0,0-.714-.714H10.429a.675.675,0,0,0-.714.714,2.1,2.1,0,0,1-2.143,2.143.675.675,0,0,0-.714.714V27.857a.675.675,0,0,0,.714.714,2.1,2.1,0,0,1,2.143,2.143.675.675,0,0,0,.714.714H26a4.741,4.741,0,0,0-.429,1.429H5.429V11.429H42.571ZM35.857,32l-2.286,2.286,2.286,2.286a.69.69,0,0,1,0,1,.69.69,0,0,1-1,0l-2.286-2.286-2.286,2.286a.69.69,0,0,1-1,0,.69.69,0,0,1,0-1l2.286-2.286L29.286,32a.707.707,0,1,1,1-1l2.286,2.286L34.857,31a.707.707,0,1,1,1,1Z" transform="translate(-4 -10)"/><path class="b" d="M173.937,143.289h-1.192a2.794,2.794,0,0,0-.656-1.384h1.842a.6.6,0,1,0,.006-1.2h-6.09a.6.6,0,1,0,0,1.2h1.745a2.034,2.034,0,0,1,1.92,1.384h-3.665a.6.6,0,0,0,0,1.2h3.665a2.087,2.087,0,0,1-.5.837,2.006,2.006,0,0,1-1.42.608h-1.745a.583.583,0,0,0-.415,1.011l4.357,4.116a.594.594,0,0,0,.849-.03.579.579,0,0,0-.012-.818c-.006-.006-.012-.006-.012-.012l-3.256-3.063h.229a3.233,3.233,0,0,0,2.275-.957,3.1,3.1,0,0,0,.885-1.691h1.192a.6.6,0,0,0,0-1.2Z" transform="translate(-150.765 -134.001)"/></g></g></svg>