<svg xmlns="http://www.w3.org/2000/svg" width="40" height="40" viewBox="0 0 40 40"><defs><style>.a{fill:none;}.b{fill:#f7a501;}</style></defs><g transform="translate(-0.355 -2.851)"><rect class="a" width="40" height="40" transform="translate(0.355 2.851)"/><g transform="translate(-519.735 -874.676)"><path class="b" d="M65.171,0h-23.8a2.431,2.431,0,0,0-2.429,2.427v8.251a.81.81,0,0,0,1.619,0V2.427a.81.81,0,0,1,.81-.809h23.8a.81.81,0,0,1,.81.809V32.52a.81.81,0,0,1-.81.809h-23.8a.81.81,0,0,1-.81-.809V8.788a.81.81,0,0,0-1.619,0V32.52a2.431,2.431,0,0,0,2.429,2.427h23.8A2.431,2.431,0,0,0,67.6,32.52V2.427A2.431,2.431,0,0,0,65.171,0Z" transform="translate(485.279 878.51)"/><path class="b" d="M142.324,40.063a.81.81,0,0,0-.81.809V72.583a.811.811,0,0,1-.81.809H115.81a.809.809,0,1,0,0,1.618H140.7a2.432,2.432,0,0,0,2.431-2.427V40.872A.81.81,0,0,0,142.324,40.063Z" transform="translate(412.831 841.533)"/><path class="b" d="M103.1,74H95.707a.77.77,0,0,0-.77.77v7.394a.77.77,0,0,0,.77.77H103.1a.77.77,0,0,0,.77-.77V74.77A.77.77,0,0,0,103.1,74Zm-.77,7.394H96.477V75.54h5.853Z" transform="translate(433.593 810.557)"/><path class="b" d="M104.007,232.7a.77.77,0,0,0-1.089,0l-2.047,2.047-.952-.952a.77.77,0,0,0-1.089,1.089l1.5,1.5a.77.77,0,0,0,1.089,0l2.592-2.592A.77.77,0,0,0,104.007,232.7Z" transform="translate(430.468 664.872)"/><path class="b" d="M215.693,249h-8.986a.77.77,0,1,0,0,1.54h8.986a.77.77,0,0,0,0-1.54Z" transform="translate(332.049 649.61)"/><path class="b" d="M253.1,74h-5.391a.77.77,0,0,0,0,1.54H253.1a.77.77,0,1,0,0-1.54Z" transform="translate(294.255 810.209)"/><path class="b" d="M253.1,122h-5.391a.77.77,0,0,0,0,1.54H253.1a.77.77,0,1,0,0-1.54Z" transform="translate(294.255 766.358)"/><path class="b" d="M253.1,170h-5.391a.77.77,0,0,0,0,1.54H253.1a.77.77,0,1,0,0-1.54Z" transform="translate(294.255 722.233)"/><path class="b" d="M104.007,309.066a.77.77,0,0,0-1.089,0l-2.047,2.047-.952-.952a.77.77,0,1,0-1.089,1.089l1.5,1.5a.77.77,0,0,0,1.089,0l2.592-2.592A.77.77,0,0,0,104.007,309.066Z" transform="translate(430.468 594.692)"/><path class="b" d="M215.693,325h-8.986a.77.77,0,0,0,0,1.54h8.986a.77.77,0,0,0,0-1.54Z" transform="translate(332.049 579.745)"/></g></g></svg>