<svg xmlns="http://www.w3.org/2000/svg" width="40" height="40.171" viewBox="0 0 40 40.171">
  <g id="Setup_ECS" data-name="Setup ECS" transform="translate(0 7.085)">
    <rect id="Rectangle_3879" data-name="Rectangle 3879" width="40" height="40" transform="translate(0 -7)" fill="none"/>
    <g id="document-settings" transform="translate(-39.963 -6.985)">
      <path id="Path_13026" data-name="Path 13026" d="M57.317,35.043H46.053a1.919,1.919,0,0,1-1.916-1.916V3.09a1.919,1.919,0,0,1,1.916-1.916H62.988V4.341a3.093,3.093,0,0,0,3.09,3.09h3.168V19.36a.587.587,0,1,0,1.173,0V6.844a.583.583,0,0,0,0-.059c0-.014,0-.028-.006-.042s0-.01,0-.015S70.4,6.7,70.395,6.68l0-.007c0-.016-.011-.032-.017-.048l0-.006c-.006-.015-.013-.029-.02-.043l0-.009c-.007-.013-.015-.026-.023-.038l-.007-.011c-.008-.012-.017-.023-.025-.034l-.009-.012c-.012-.015-.025-.029-.039-.043L63.989.172a.569.569,0,0,0-.043-.039L63.935.125,63.9.1,63.889.092,63.851.07l-.009,0L63.8.045l-.006,0L63.745.025l-.007,0L63.69.011l-.015,0L63.633,0l-.059,0H46.053a3.093,3.093,0,0,0-3.09,3.09V33.127a3.093,3.093,0,0,0,3.09,3.09H57.317a.587.587,0,1,0,0-1.173Zm6.844-30.7V2l4.255,4.255H66.077A1.919,1.919,0,0,1,64.161,4.341Z" fill="#c7222a" stroke="#c7222a" stroke-width="0.2"/>
      <path id="Path_13027" data-name="Path 13027" d="M295.93,328a4.967,4.967,0,1,0,4.967,4.967A4.973,4.973,0,0,0,295.93,328Zm0,8.761a3.794,3.794,0,1,1,3.794-3.794A3.8,3.8,0,0,1,295.93,336.761Z" transform="translate(-228.601 -302.344)" fill="#c7222a" stroke="#c7222a" stroke-width="0.2"/>
      <path id="Path_13028" data-name="Path 13028" d="M258.049,283.281l-.372-.215a7.859,7.859,0,0,0,0-3.438l.372-.215a1.212,1.212,0,0,0,.444-1.656l-1.252-2.168a1.212,1.212,0,0,0-1.656-.444l-.369.213a8.084,8.084,0,0,0-2.98-1.716v-.431A1.214,1.214,0,0,0,251.023,272h-2.5a1.214,1.214,0,0,0-1.212,1.212v.431a8.085,8.085,0,0,0-2.98,1.716l-.369-.213a1.212,1.212,0,0,0-1.656.444l-1.252,2.168a1.212,1.212,0,0,0,.444,1.656l.372.214a7.86,7.86,0,0,0,0,3.438l-.371.215a1.212,1.212,0,0,0-.444,1.656L242.3,287.1a1.214,1.214,0,0,0,1.656.444l.369-.213a8.083,8.083,0,0,0,2.98,1.716v.431a1.214,1.214,0,0,0,1.212,1.212h2.5a1.214,1.214,0,0,0,1.212-1.212v-.431a8.085,8.085,0,0,0,2.98-1.716l.369.213a1.214,1.214,0,0,0,1.656-.444l1.252-2.168a1.212,1.212,0,0,0-.444-1.656Zm-1.613-3.783a6.759,6.759,0,0,1,0,3.7.587.587,0,0,0,.272.665l.754.435h0a.039.039,0,0,1,.014.053l-1.252,2.168a.039.039,0,0,1-.053.014l-.751-.434a.586.586,0,0,0-.712.1,6.911,6.911,0,0,1-3.206,1.846.587.587,0,0,0-.44.568v.872a.039.039,0,0,1-.039.039h-2.5a.039.039,0,0,1-.039-.039v-.872a.586.586,0,0,0-.44-.568,6.912,6.912,0,0,1-3.206-1.846.587.587,0,0,0-.712-.1l-.751.434a.039.039,0,0,1-.053-.014l-1.252-2.168a.039.039,0,0,1,.014-.053l.754-.435a.587.587,0,0,0,.272-.665,6.758,6.758,0,0,1,0-3.7.587.587,0,0,0-.272-.665l-.754-.435a.039.039,0,0,1-.014-.053l1.252-2.168a.039.039,0,0,1,.053-.014l.751.434a.587.587,0,0,0,.712-.1,6.911,6.911,0,0,1,3.206-1.846.587.587,0,0,0,.44-.568v-.872a.039.039,0,0,1,.039-.039h2.5a.039.039,0,0,1,.039.039v.872a.587.587,0,0,0,.44.568,6.911,6.911,0,0,1,3.206,1.846.587.587,0,0,0,.712.1l.751-.434a.039.039,0,0,1,.053.014l1.252,2.168a.039.039,0,0,1-.014.053l-.754.435A.587.587,0,0,0,256.436,279.5Z" transform="translate(-182.443 -250.724)" fill="#c7222a" stroke="#c7222a" stroke-width="0.2"/>
      <path id="Path_13030" data-name="Path 13030" d="M139.55,129.173H140.8a.587.587,0,1,0,0-1.173H139.55a.587.587,0,0,0,0,1.173Z" transform="translate(-91.698 -117.988)" fill="#c7222a" stroke="#c7222a" stroke-width="0.2"/>
      <path id="Path_13031" data-name="Path 13031" d="M193.807,128H187.55a.587.587,0,1,0,0,1.173h6.258a.587.587,0,1,0,0-1.173Z" transform="translate(-135.943 -117.988)" fill="#c7222a" stroke="#c7222a" stroke-width="0.2"/>
      <path id="Path_13032" data-name="Path 13032" d="M145.142,168.587a.587.587,0,0,0-.587-.587H139.55a.587.587,0,0,0,0,1.173h5.006A.587.587,0,0,0,145.142,168.587Z" transform="translate(-91.698 -154.859)" fill="#c7222a" stroke="#c7222a" stroke-width="0.2"/>
      <path id="Path_13033" data-name="Path 13033" d="M234.963,168.587a.587.587,0,0,0,.587.587h4.38a.587.587,0,1,0,0-1.173h-4.38A.587.587,0,0,0,234.963,168.587Z" transform="translate(-180.189 -154.859)" fill="#c7222a" stroke="#c7222a" stroke-width="0.2"/>
      <path id="Path_13036" data-name="Path 13036" d="M195.55,209.173h10.638a.587.587,0,0,0,0-1.173H195.55a.587.587,0,1,0,0,1.173Z" transform="translate(-143.317 -191.73)" fill="#c7222a" stroke="#c7222a" stroke-width="0.2"/>
      <path id="Path_13037" data-name="Path 13037" d="M139.55,208a.587.587,0,0,0,0,1.173h1.877a.587.587,0,1,0,0-1.173Z" transform="translate(-91.698 -191.73)" fill="#c7222a" stroke="#c7222a" stroke-width="0.2"/>
      <path id="Path_13038" data-name="Path 13038" d="M146.433,248H139.55a.587.587,0,0,0,0,1.173h6.883a.587.587,0,0,0,0-1.173Z" transform="translate(-91.698 -228.601)" fill="#c7222a" stroke="#c7222a" stroke-width="0.2"/>
    </g>
  </g>
</svg>
