<svg xmlns="http://www.w3.org/2000/svg" width="50" height="50" viewBox="0 0 50 50"><defs><style>.a{fill:#fff;}.b{fill:#f7a501;stroke:#f7a501;stroke-width:0.2px;}</style></defs><g transform="translate(-10.236 144.822)"><rect class="a" width="50" height="50" transform="translate(10.236 -144.822)"/><g transform="translate(10.373 -149.152)"><path class="b" d="M48.9,4.465H.829A.829.829,0,0,0,0,5.294v33.15a.829.829,0,0,0,.829.829H15.794c.025.276.065.548.114.817l-4.546,5.418a.829.829,0,0,0,.443,1.339l5,1.2,2.046,4.724a.829.829,0,0,0,1.4.2l4.538-5.409h.148l4.538,5.409a.829.829,0,0,0,1.4-.2l2.046-4.724,5-1.2a.829.829,0,0,0,.443-1.339L33.818,40.09c.049-.269.09-.541.114-.817H48.9a.829.829,0,0,0,.829-.829V5.294A.829.829,0,0,0,48.9,4.465ZM19.843,50.876l-1.678-3.87a.829.829,0,0,0-.568-.477l-4.1-.98L16.47,42c.016.036.036.07.052.106.108.249.225.485.354.719.053.1.109.194.166.289q.171.284.361.557c.089.127.181.249.277.373.111.141.225.278.346.414s.26.286.4.424c.1.1.207.2.315.3.09.083.17.17.264.249s.181.132.271.2c.041.031.075.068.117.1.075.056.153.105.23.159.119.083.237.172.361.249.235.151.478.288.724.414.094.048.191.092.287.137q.331.156.667.283c.065.024.128.051.193.074a8.919,8.919,0,0,0,.958.278l.009,0Zm6.576-5.148a7.511,7.511,0,0,1-1.154.152h-.011c-.131.007-.262.016-.394.016s-.263-.009-.394-.016h-.011a7.568,7.568,0,0,1-1.151-.151l-.07-.014c-.148-.032-.293-.072-.438-.114-.06-.017-.122-.033-.181-.052-.1-.032-.206-.07-.307-.107s-.2-.072-.3-.113c-.06-.026-.12-.053-.18-.083-.136-.061-.271-.123-.4-.192l-.066-.036a7.5,7.5,0,0,1-.978-.625c-.172-.128-.332-.27-.488-.41a7.332,7.332,0,0,1-.53-.523c-.066-.071-.138-.139-.2-.213a7.276,7.276,0,0,1-.632-.864c-.028-.045-.052-.092-.083-.138a7.253,7.253,0,0,1-.464-.917c-.012-.028-.025-.056-.036-.083a7.451,7.451,0,0,1-.353-1.117c0-.015-.012-.027-.016-.041a7.46,7.46,0,1,1,14.551.009c0,.014-.012.027-.016.041a7.482,7.482,0,0,1-.352,1.116c-.012.029-.025.058-.037.083a7.217,7.217,0,0,1-.462.912c-.027.046-.052.1-.083.142a7.344,7.344,0,0,1-.631.864c-.062.073-.133.139-.2.211a7.518,7.518,0,0,1-.536.528c-.157.14-.314.282-.486.409s-.325.235-.492.342l-.01.006c-.15.1-.3.183-.459.266l-.091.05c-.125.065-.249.124-.38.181-.066.03-.132.061-.2.088-.093.039-.187.073-.282.107s-.211.078-.319.111c-.057.018-.115.034-.173.051-.147.041-.294.083-.443.114Zm9.812-.181-4.1.98a.829.829,0,0,0-.568.477l-1.678,3.873-2.976-3.546h.007a8.727,8.727,0,0,0,.961-.278c.062-.022.122-.047.184-.07.231-.088.459-.184.683-.291.091-.042.182-.083.272-.129.249-.129.5-.269.736-.423.115-.073.225-.155.337-.234.083-.057.166-.109.249-.17.044-.033.083-.072.126-.106.083-.068.179-.125.264-.2s.171-.166.259-.244c.109-.1.217-.2.322-.3q.2-.2.4-.421c.12-.136.235-.273.346-.414.1-.122.188-.249.277-.373.128-.181.249-.366.361-.555.058-.1.114-.193.166-.292q.193-.351.352-.717c.015-.042.036-.076.052-.114Zm11.837-7.93H33.937a9.111,9.111,0,0,0-18.15,0H1.658V6.123H48.068Z" transform="translate(0)"/><path class="b" d="M32.87,36.465a.87.87,0,0,0-.87.87v3.479h1.739V38.2h2.609V36.465Z" transform="translate(-28.521 -28.521)"/><path class="b" d="M411.479,36.465H408V38.2h2.609v2.609h1.74V37.335A.87.87,0,0,0,411.479,36.465Z" transform="translate(-366.102 -28.521)"/><path class="b" d="M410.609,268.465v2.609H408v1.739h3.479a.87.87,0,0,0,.87-.87v-3.479Z" transform="translate(-366.102 -236.776)"/><path class="b" d="M33.739,271.074v-2.609H32v3.479a.87.87,0,0,0,.87.87h3.479v-1.739Z" transform="translate(-28.521 -236.776)"/><rect class="b" width="20.874" height="1.739" transform="translate(14.426 16.566)"/><rect class="b" width="31.311" height="1.739" transform="translate(9.207 21.53)"/><path class="b" d="M190.088,276.465a6.088,6.088,0,1,0,6.088,6.088A6.088,6.088,0,0,0,190.088,276.465Zm0,10.437a4.349,4.349,0,1,1,4.349-4.349A4.349,4.349,0,0,1,190.088,286.9Z" transform="translate(-165.226 -244.257)"/></g></g></svg>