<svg xmlns="http://www.w3.org/2000/svg" width="14.107" height="17.7" viewBox="0 0 14.107 17.7">
  <g id="wishlist" transform="translate(-52 0)">
    <path id="Path_57" data-name="Path 57" d="M119.557,269.906h5.106v1.037h-5.106Z" transform="translate(-65.218 -260.578)" fill="#000"/>
    <path id="Path_58" data-name="Path 58" d="M119.557,334.827h3.25v1.037h-3.25Z" transform="translate(-65.218 -323.255)" fill="#000"/>
    <path id="Path_59" data-name="Path 59" d="M119.557,399.747h7.2v1.037h-7.2Z" transform="translate(-65.218 -385.931)" fill="#000"/>
    <path id="Path_60" data-name="Path 60" d="M63.33,0a2.762,2.762,0,0,0-1.755.625,2.775,2.775,0,0,0-4.528,2.048H52V17.7H63.873V6.1c1.02-.983,1.562-1.512,1.615-1.578A2.775,2.775,0,0,0,63.33,0ZM61.574,6.868c-1.281-1.229-2.946-2.832-3.116-3.011a1.718,1.718,0,0,1-.378-1.082,1.738,1.738,0,0,1,3.09-1.092l.4.5.4-.5a1.741,1.741,0,1,1,2.72,2.175C64.52,4.036,62.855,5.639,61.574,6.868Zm1.262,9.79h-9.8V3.711H57.2a2.771,2.771,0,0,0,.454.809c.08.1,3.913,3.785,3.913,3.785L62.831,7.1v9.564Z" fill="#000"/>
  </g>
</svg>
